HIERARCHY
ROOT SpineBase
{
  OFFSET 0.000000 0.000000 0.000000
  CHANNELS 6 Xposition Yposition Zposition Zrotation Xrotation Yrotation
  JOINT SpineMid
  {
    OFFSET 0.000000 30.443232 0.000000
    CHANNELS 3 Zrotation Xrotation Yrotation
    JOINT SpineShoulder
    {
      OFFSET 0.059936 22.613898 -0.726003
      CHANNELS 3 Zrotation Xrotation Yrotation
      JOINT Neck
      {
        OFFSET 0.045800 7.488272 -0.537667
        CHANNELS 3 Zrotation Xrotation Yrotation
        JOINT Head
        {
          OFFSET -5.515602 12.820442 0.854902
          CHANNELS 3 Zrotation Xrotation Yrotation
          End Site
          {
            OFFSET 0 0 0
          }
        }
      }
      JOINT ShoulderLeft
      {
        OFFSET -16.848573 -3.633788 9.429991
        CHANNELS 3 Zrotation Xrotation Yrotation
        JOINT ElbowLeft
        {
          OFFSET -2.580976 -22.171543 1.483302
          CHANNELS 3 Zrotation Xrotation Yrotation
          JOINT WristLeft
          {
            OFFSET 2.493182 -8.068059 -20.360919
            CHANNELS 3 Zrotation Xrotation Yrotation
            JOINT HandLeft
            {
              OFFSET 0.414956 -0.828843 -2.934836
              CHANNELS 3 Zrotation Xrotation Yrotation
              JOINT HandTipLeft
              {
                OFFSET -1.643093 -0.309025 -6.946674
                CHANNELS 3 Zrotation Xrotation Yrotation
                End Site
                {
                  OFFSET 0 0 0
                }
              }
              JOINT ThumbLeft
              {
                OFFSET 1.952006 -1.130137 -5.836373
                CHANNELS 3 Zrotation Xrotation Yrotation
                End Site
                {
                  OFFSET 0 0 0
                }
              }
            }
          }
        }
      }
      JOINT ShoulderRight
      {
        OFFSET 14.237183 -1.996763 -7.355809
        CHANNELS 3 Zrotation Xrotation Yrotation
        JOINT ElbowRight
        {
          OFFSET 9.675082 -22.096406 0.541348
          CHANNELS 3 Zrotation Xrotation Yrotation
          JOINT WristRight
          {
            OFFSET -21.249948 -12.793736 -11.125574
            CHANNELS 3 Zrotation Xrotation Yrotation
            JOINT HandRight
            {
              OFFSET -3.613494 -2.470896 2.632569
              CHANNELS 3 Zrotation Xrotation Yrotation
              JOINT HandTipRight
              {
                OFFSET -3.895046 -2.672545 1.136797
                CHANNELS 3 Zrotation Xrotation Yrotation
                End Site
                {
                  OFFSET 0 0 0
                }
              }
              JOINT ThumbRight
              {
                OFFSET -4.085460 5.126757 2.557863
                CHANNELS 3 Zrotation Xrotation Yrotation
                End Site
                {
                  OFFSET 0 0 0
                }
              }
            }
          }
        }
      }
    }
  }
  JOINT HipLeft
  {
    OFFSET -6.039449 -0.419896 -0.229762
    CHANNELS 3 Zrotation Xrotation Yrotation
    JOINT KneeLeft
    {
      OFFSET 1.344352 -36.509855 4.937983
      CHANNELS 3 Zrotation Xrotation Yrotation
      JOINT AnkleLeft
      {
        OFFSET 6.670073 -37.930015 11.464407
        CHANNELS 3 Zrotation Xrotation Yrotation
        JOINT FootLeft
        {
          OFFSET -3.121065 -7.553231 -6.077547
          CHANNELS 3 Zrotation Xrotation Yrotation
          End Site
          {
            OFFSET 0 0 0
          }
        }
      }
    }
  }
  JOINT HipRight
  {
    OFFSET 6.649834 1.909892 -6.141064
    CHANNELS 3 Zrotation Xrotation Yrotation
    JOINT KneeRight
    {
      OFFSET 6.688164 -35.920960 -5.922705
      CHANNELS 3 Zrotation Xrotation Yrotation
      JOINT AnkleRight
      {
        OFFSET 9.163652 -38.091846 7.770042
        CHANNELS 3 Zrotation Xrotation Yrotation
        JOINT FootRight
        {
          OFFSET -5.764669 -2.945606 -13.795523
          CHANNELS 3 Zrotation Xrotation Yrotation
          End Site
          {
            OFFSET 0 0 0
          }
        }
      }
    }
  }
}
MOTION
Frames: 11
Frame Time: 0.033333
-31.391746 81.134378 330.151590 1.898700 -2.237437 30.719793 0.056531 -0.155196 -30.612188 -0.036598 0.031583 0.085757 10.213968 -7.359452 -4.382633 0.000000 0.000000 0.000000 1.321562 9.964246 -1.152217 2.078846 11.409137 -5.142757 -19.136892 -3.911154 41.017287 7.017131 -6.388776 -32.740380 0.000000 0.000000 0.000000 0.000000 0.000000 0.000000 -2.236436 12.012957 4.175553 -7.558151 -7.009185 -2.800955 -23.046735 1.729286 -29.187661 -1.954756 3.998562 10.324711 0.000000 0.000000 0.000000 0.000000 0.000000 0.000000 -1.911029 1.570681 -30.757283 -0.623917 0.348127 -0.462256 -1.133243 -7.001688 6.211443 0.000000 0.000000 0.000000 -1.998856 -4.914922 -32.548112 -5.355858 7.553208 1.927418 23.905430 -45.894680 -2.456513 0.000000 0.000000 0.000000
-31.397145 81.131824 330.134292 1.892103 -2.218822 30.677792 0.055111 -0.142251 -30.571175 -0.050350 0.053125 0.083875 10.165092 -7.284536 -4.331343 0.000000 0.000000 0.000000 1.061409 8.944995 -0.995923 2.555338 13.040445 -5.445334 -18.949298 -6.792278 41.193101 5.954917 -5.327522 -23.396672 0.000000 0.000000 0.000000 0.000000 0.000000 0.000000 -2.235319 11.916526 4.158947 -8.016941 -6.999945 -2.372844 -21.611782 0.536030 -27.672974 -6.106430 3.121717 8.224235 0.000000 0.000000 0.000000 0.000000 0.000000 0.000000 -1.977314 1.577284 -30.722761 -0.488518 0.335953 -0.438163 -1.337020 -6.312219 5.987784 0.000000 0.000000 0.000000 -2.048450 -4.911625 -32.499372 -5.196039 7.668477 1.951959 23.969918 -46.018359 -1.901514 0.000000 0.000000 0.000000
-31.404528 81.130260 330.117585 1.881700 -2.198637 30.627938 0.055553 -0.121171 -30.522720 -0.064166 0.071786 0.081775 10.077046 -7.217029 -4.278332 0.000000 0.000000 0.000000 0.775946 7.974393 -0.851991 2.997859 14.306332 -5.689708 -19.816866 -8.460961 43.504345 6.430293 3.146166 -11.087395 0.000000 0.000000 0.000000 0.000000 0.000000 0.000000 -2.224997 11.810274 4.140797 -8.461058 -6.977803 -1.973029 -20.362971 0.054969 -26.970716 -8.715647 1.871723 7.421199 0.000000 0.000000 0.000000 0.000000 0.000000 0.000000 -2.016956 1.596591 -30.678709 -0.389931 0.267741 -0.429177 -1.353346 -5.539819 5.631340 0.000000 0.000000 0.000000 -2.106233 -4.911394 -32.442597 -5.027777 7.769151 1.969813 23.990911 -46.106182 -1.465720 0.000000 0.000000 0.000000
-31.415723 81.131473 330.106535 1.863968 -2.179378 30.591224 0.058560 -0.092466 -30.487936 -0.076173 0.084407 0.079530 10.013409 -7.090672 -4.205788 0.000000 0.000000 0.000000 0.628789 7.383951 -0.768913 3.166478 14.642081 -5.768565 -17.570440 -7.641785 38.327809 6.868616 10.016203 -13.064417 0.000000 0.000000 0.000000 0.000000 0.000000 0.000000 -2.212224 11.712895 4.127890 -8.897923 -6.908911 -1.661048 -19.626665 0.456196 -27.482660 -8.716244 0.386225 8.290481 0.000000 0.000000 0.000000 0.000000 0.000000 0.000000 -2.035645 1.629665 -30.647232 -0.322913 0.193270 -0.426801 -1.598285 -5.405326 5.766281 0.000000 0.000000 0.000000 -2.151069 -4.917632 -32.400633 -4.894393 7.812112 1.972391 23.808081 -46.039928 -1.608475 0.000000 0.000000 0.000000
-31.426741 81.131291 330.103313 1.842527 -2.157432 30.560886 0.062364 -0.062417 -30.459788 -0.084418 0.090821 0.077457 10.002686 -6.916765 -4.119332 0.000000 0.000000 0.000000 0.635880 7.288378 -0.758715 3.133563 14.404554 -5.724047 -16.967852 -6.736712 36.882988 5.688617 13.662199 -9.356143 0.000000 0.000000 0.000000 0.000000 0.000000 0.000000 -2.213498 11.650889 4.131436 -9.169277 -6.878405 -1.471853 -19.216715 1.089258 -28.261213 -8.218830 0.018174 8.757007 0.000000 0.000000 0.000000 0.000000 0.000000 0.000000 -2.027085 1.614316 -30.618932 -0.379047 0.187088 -0.442981 -1.520651 -5.503457 5.812675 0.000000 0.000000 0.000000 -2.186988 -4.943643 -32.369719 -4.813916 7.802958 1.962128 23.498883 -45.740092 -1.984821 0.000000 0.000000 0.000000
-31.438355 81.133092 330.102342 1.821452 -2.141422 30.557499 0.064906 -0.035935 -30.458373 -0.087147 0.089941 0.075912 9.991536 -6.723281 -4.035511 0.000000 0.000000 0.000000 0.431899 6.785641 -0.688152 3.366892 14.743261 -5.797564 -17.012688 -6.647323 37.055725 6.134555 13.281588 -10.773145 0.000000 0.000000 0.000000 0.000000 0.000000 0.000000 -2.290900 11.669180 4.170898 -10.149214 -6.771936 -0.969921 -17.077833 3.450440 -30.933407 -7.904928 -3.119176 10.612000 0.000000 0.000000 0.000000 0.000000 0.000000 0.000000 -1.988941 1.612689 -30.615015 -0.396971 0.113912 -0.454921 -1.907126 -4.512744 5.699720 0.000000 0.000000 0.000000 -2.231571 -4.960196 -32.364594 -4.765589 7.809198 1.951115 23.195450 -45.507258 -2.615373 0.000000 0.000000 0.000000
-31.445141 81.134523 330.110481 1.802375 -2.124601 30.586285 0.063541 -0.008460 -30.489069 -0.087796 0.083309 0.074526 10.038780 -6.577906 -3.970644 0.000000 0.000000 0.000000 0.241170 6.386205 -0.633342 3.641130 15.224106 -5.893411 -16.823332 -7.273299 36.763252 7.115620 11.612025 -14.671349 0.000000 0.000000 0.000000 0.000000 0.000000 0.000000 -2.457284 11.744892 4.243477 -8.929157 -7.014666 -1.573792 -19.867238 2.038933 -29.639512 -6.524490 0.703830 9.502633 0.000000 0.000000 0.000000 0.000000 0.000000 0.000000 -1.954344 1.619174 -30.643543 -0.430190 0.085248 -0.463332 -2.009368 -4.531616 5.809610 0.000000 0.000000 0.000000 -2.283764 -4.982857 -32.393646 -4.689206 7.784218 1.933915 22.903839 -45.315997 -3.246818 0.000000 0.000000 0.000000
-31.449773 81.134191 330.123868 1.782208 -2.100915 30.645266 0.061504 0.015099 -30.550038 -0.089840 0.080919 0.072969 10.128871 -6.508101 -3.926507 0.000000 0.000000 0.000000 -0.007029 5.992937 -0.581666 4.167271 16.042418 -6.240363 -15.759879 -9.646162 34.768643 5.437729 13.710849 -8.405949 0.000000 0.000000 0.000000 0.000000 0.000000 0.000000 -2.778164 11.884327 4.366011 -7.697345 -7.381356 -2.063364 -22.182651 1.274701 -29.017447 -5.406889 2.995434 9.079824 0.000000 0.000000 0.000000 0.000000 0.000000 0.000000 -1.933352 1.615711 -30.703548 -0.430129 0.079236 -0.460705 -2.005568 -4.972698 5.989462 0.000000 0.000000 0.000000 -2.333388 -4.994361 -32.449194 -4.599958 7.717167 1.905865 22.714120 -45.327824 -3.908553 0.000000 0.000000 0.000000
-31.453177 81.133378 330.142128 1.765576 -2.082499 30.723172 0.055886 0.037027 -30.629625 -0.093308 0.075143 0.071487 10.243981 -6.461646 -3.896170 0.000000 0.000000 0.000000 -0.269606 5.606094 -0.531668 4.517928 16.604786 -6.312019 -15.553368 -11.318737 34.746481 8.424052 11.218740 -18.899398 0.000000 0.000000 0.000000 0.000000 0.000000 0.000000 -2.945033 11.989717 4.451321 -6.628267 -7.719068 -2.494077 -24.327804 0.209502 -28.083120 -4.830513 5.261702 8.286679 0.000000 0.000000 0.000000 0.000000 0.000000 0.000000 -1.926381 1.612541 -30.783334 -0.394536 0.092685 -0.447498 -1.906514 -5.712180 6.198295 0.000000 0.000000 0.000000 -2.382773 -4.995210 -32.522495 -4.504267 7.639383 1.875475 22.603452 -45.423503 -4.433000 0.000000 0.000000 0.000000
-31.455049 81.134029 330.166548 1.753194 -2.071523 30.848382 0.049483 0.057220 -30.756128 -0.097289 0.070841 0.070151 10.336561 -6.455870 -3.882738 0.000000 0.000000 0.000000 -0.595966 5.202922 -0.481353 4.764582 16.909603 -6.162961 -15.759432 -12.126172 35.678091 11.300596 1.785796 -41.309285 0.000000 0.000000 0.000000 0.000000 0.000000 0.000000 -2.872770 11.987839 4.456573 -6.221486 -7.916919 -2.579522 -25.341562 0.116912 -27.986113 -4.561767 6.568022 7.762229 0.000000 0.000000 0.000000 0.000000 0.000000 0.000000 -1.936342 1.624833 -30.911891 -0.291185 0.110771 -0.417752 -1.641718 -6.752210 6.368730 0.000000 0.000000 0.000000 -2.424810 -4.986280 -32.643222 -4.419679 7.563243 1.848026 22.642259 -45.665554 -4.692482 0.000000 0.000000 0.000000
-31.452118 81.136939 330.175702 1.750055 -2.046844 30.936153 0.044319 0.069279 -30.844786 -0.095359 0.065545 0.069686 10.391555 -6.555875 -3.900344 0.000000 0.000000 0.000000 -0.943759 4.835224 -0.440017 4.905696 16.986748 -5.863459 -16.482579 -11.647941 37.535854 4.700441 -16.117527 -73.144932 0.000000 0.000000 0.000000 0.000000 0.000000 0.000000 -2.733504 11.927334 4.426784 -6.117422 -8.001782 -2.557532 -25.588045 0.188454 -27.903139 -5.262275 7.253535 6.988268 0.000000 0.000000 0.000000 0.000000 0.000000 0.000000 -1.940503 1.625055 -31.000704 -0.209718 0.124301 -0.390614 -1.302087 -7.876070 6.530073 0.000000 0.000000 0.000000 -2.474332 -4.995995 -32.729165 -4.350385 7.552677 1.839726 22.890117 -46.068580 -4.455923 0.000000 0.000000 0.000000
